<svg xmlns="http://www.w3.org/2000/svg" viewBox="0 0 27.86 36.71"><defs><style>.cls-1{fill:#27dec4;}</style></defs><g id="Layer_2" data-name="Layer 2"><g id="Layer_1-2" data-name="Layer 1"><path class="cls-1" d="M27,9.86H22.09V8.06A8.07,8.07,0,0,0,6,8.06v1.8H.86a.86.86,0,0,0-.86.86v18.1a7.9,7.9,0,0,0,7.9,7.89H20a7.9,7.9,0,0,0,7.9-7.89V10.72A.87.87,0,0,0,27,9.86ZM7.68,8.06a6.35,6.35,0,1,1,12.69,0v1.8H7.68ZM26.14,28.82A6.18,6.18,0,0,1,20,35H7.9a6.19,6.19,0,0,1-6.19-6.18V11.58H6v2.58a1.29,1.29,0,1,0,1.72,0V11.58H20.37v2.58a1.29,1.29,0,1,0,1.72,0V11.58h4.05Z"/></g></g></svg>