<svg xmlns="http://www.w3.org/2000/svg" viewBox="0 0 262.4 143.7"><defs><style>.cls-1{font-size:26px;font-family:Poppins-Bold, Poppins;font-weight:700;}.cls-1,.cls-3{fill:#212121;}.cls-2{fill:#27dec4;}.cls-4{fill:#fff;}</style></defs><g id="Layer_2" data-name="Layer 2"><g id="Layer_1-2" data-name="Layer 1"><text class="cls-1" transform="translate(58.32 22.17)">100% Authentic<tspan x="23.58" y="31.2">certified by </tspan></text><path class="cls-2" d="M123,105.94H111.8c-.1-.33-.13-35.65,0-36.21H123c0,1,0,2.08,0,3.13v9.57a2.28,2.28,0,0,0,.3-.27,13.2,13.2,0,0,1,2.92-2.56,8.59,8.59,0,0,1,4.11-1.34,11,11,0,0,1,4.24.4,8.06,8.06,0,0,1,5.48,5.61,12.51,12.51,0,0,1,.53,3.8v17.44c0,.13,0,.26,0,.42H129.28c0-.18,0-.36,0-.54V91.8a4.94,4.94,0,0,0-.2-1.58,3,3,0,0,0-2.11-2.1,3.1,3.1,0,0,0-3.65,1.9,5,5,0,0,0-.31,1.87v14Z"/><path class="cls-3" d="M111.72,109.91H123v9.49c.16-.17.25-.25.33-.35a12.76,12.76,0,0,1,3.32-2.75,8.22,8.22,0,0,1,3.23-1,11.16,11.16,0,0,1,4.67.37,8.1,8.1,0,0,1,5.49,5.6,12.25,12.25,0,0,1,.53,3.8v17.87c-.32.11-10.66.15-11.36,0v-.49c0-4.56,0-9.12,0-13.68a5.88,5.88,0,0,0-.18-1.45,2.94,2.94,0,0,0-2.68-2.28,3.15,3.15,0,0,0-3,1.92,4.8,4.8,0,0,0-.33,1.95V143H111.76C111.66,142.67,111.62,110.71,111.72,109.91Z"/><path class="cls-3" d="M213.19,126a4,4,0,0,0,.24-.33L226,107.14a1,1,0,0,0,.14-.21.45.45,0,0,1,.46-.25h11.26l.23,0c-.09.16-.17.29-.25.41q-5,7.36-10,14.74l-14,20.64a1.19,1.19,0,0,0-.09.15.64.64,0,0,1-.66.36H201.78V115.21H213.1V126Z"/><path class="cls-2" d="M226.34,69.71H238c0,.2-.12.31-.21.44l-6.48,9.58-17.49,25.85a.74.74,0,0,1-.69.39H201.86c-.1-.32-.15-26.71-.05-27.65,0,0,0,0,0,0l0,0c.1,0,.2,0,.3,0h10.7a.54.54,0,0,1,.16,0c.06.89,0,1.8,0,2.7s0,1.82,0,2.73v5.38h.1s0,0,0,0Z"/><path class="cls-3" d="M171,132.05H153.58a1.79,1.79,0,0,0,0,.25,4.89,4.89,0,0,0,3.92,3.28,6.07,6.07,0,0,0,4.69-1c.55-.39,1-.85,1.57-1.29a3.09,3.09,0,0,0,.32-.41l6.16,4.9c-.52.58-1,1.14-1.52,1.65a14,14,0,0,1-6.56,3.78,19.36,19.36,0,0,1-5.93.41,15.87,15.87,0,0,1-5.67-1.44,12.62,12.62,0,0,1-7.42-9.64,15.34,15.34,0,0,1,.87-8.88,13.17,13.17,0,0,1,9.51-8.07,14.94,14.94,0,0,1,4-.35,15.85,15.85,0,0,1,4.39.69,12.28,12.28,0,0,1,8.27,8.52,19.07,19.07,0,0,1,.82,5.67C171.06,130.71,171,131.35,171,132.05Zm-17.64-5c.82.09,7,.06,7.34,0,0-.25-.07-.5-.12-.75a4.29,4.29,0,0,0-1.53-2.55,3.29,3.29,0,0,0-4.74.71,5.24,5.24,0,0,0-.75,1.69C153.51,126.4,153.46,126.71,153.39,127Z"/><path class="cls-2" d="M171,95.05H153.56c0,.11,0,.19,0,.25a4.9,4.9,0,0,0,4.08,3.32,6.13,6.13,0,0,0,4.77-1.2c.6-.44,1.16-1,1.78-1.46l6,4.73a.59.59,0,0,1-.05.13,15,15,0,0,1-6.86,5,15.25,15.25,0,0,1-4,.74,19.68,19.68,0,0,1-3.76-.1,14,14,0,0,1-10-5.45,12.77,12.77,0,0,1-2.42-6.13,15.76,15.76,0,0,1,.53-7.06,13.24,13.24,0,0,1,9.21-9.08,14.91,14.91,0,0,1,4.93-.52,15.39,15.39,0,0,1,3.88.6A12.17,12.17,0,0,1,170,86.91,18.46,18.46,0,0,1,171,93Zm-10.26-5c0-.32-.07-.6-.14-.88a4.32,4.32,0,0,0-1.27-2.3,3.33,3.33,0,0,0-5.11.62,6,6,0,0,0-.83,2.26,1.62,1.62,0,0,0,0,.3Z"/><path class="cls-3" d="M199.82,122.75l-8.12,4.58-.26-.43a6,6,0,0,0-1.16-1.39,4,4,0,0,0-5-.07,4.57,4.57,0,0,0-1.69,3.07,6.1,6.1,0,0,0,.32,3.11,4.94,4.94,0,0,0,.53,1,3.87,3.87,0,0,0,5.92.68c.53-.49,1-1.07,1.49-1.66l8.13,4.63-.07.2a13.84,13.84,0,0,1-6.13,5.91,13.56,13.56,0,0,1-4.41,1.19,18.18,18.18,0,0,1-3.46.09,13.8,13.8,0,0,1-10.51-5.74,14.23,14.23,0,0,1,8.73-22.34,15.72,15.72,0,0,1,8.08.36,12.65,12.65,0,0,1,7.21,6.07C199.56,122.23,199.67,122.46,199.82,122.75Z"/><path class="cls-3" d="M101.75,131.6l8.15,4.65a.31.31,0,0,1,0,.14,13.51,13.51,0,0,1-6.85,6.27,14.36,14.36,0,0,1-4.29,1,16,16,0,0,1-4.79-.21,14.17,14.17,0,0,1-11.28-15.22,14,14,0,0,1,11.58-12.66,15.39,15.39,0,0,1,8.21.5,13,13,0,0,1,7.3,6.72l-8.1,4.57c-.09-.12-.15-.22-.23-.32a14.71,14.71,0,0,0-1-1.32,3.92,3.92,0,0,0-5.44,0,4.84,4.84,0,0,0-1.47,3.45,6.08,6.08,0,0,0,.31,2.35,4.9,4.9,0,0,0,1.24,1.9,4,4,0,0,0,5,.19,7.88,7.88,0,0,0,1.42-1.52Z"/><path class="cls-2" d="M199.8,85.73l-8.07,4.56a4,4,0,0,0-.25-.37c-.33-.42-.63-.86-1-1.25a4,4,0,0,0-5.64.12,5.19,5.19,0,0,0-1.33,3.86,5.89,5.89,0,0,0,.37,2,4.71,4.71,0,0,0,1.28,1.83,3.52,3.52,0,0,0,2.17.87A4,4,0,0,0,190.71,96c.38-.43.74-.88,1.13-1.36L200,99.26a.93.93,0,0,1-.06.18,13.74,13.74,0,0,1-6,5.86,13.53,13.53,0,0,1-4.09,1.18,21.21,21.21,0,0,1-3.28.17,14,14,0,0,1-12.19-7.56,14.32,14.32,0,0,1-1.59-6.15,14.07,14.07,0,0,1,11.35-14.33,16.06,16.06,0,0,1,8,.28,12.54,12.54,0,0,1,7,5.57C199.33,84.86,199.54,85.28,199.8,85.73Z"/><path class="cls-2" d="M109.7,85.75l-8,4.54a3.35,3.35,0,0,0-.22-.34c-.36-.45-.69-.93-1.08-1.34a4,4,0,0,0-5.42,0,5,5,0,0,0-1.49,3.45,6.09,6.09,0,0,0,.33,2.43,4.72,4.72,0,0,0,1.38,2,4,4,0,0,0,4.83.07c.49-.43.91-.93,1.35-1.4.14-.16.25-.35.41-.55l8.12,4.62a.49.49,0,0,1,0,.14,13.59,13.59,0,0,1-6.58,6.14,13.34,13.34,0,0,1-4.36,1c-.8.06-1.61.1-2.42.09A14.16,14.16,0,0,1,94.05,78.6a15.76,15.76,0,0,1,8.12.36,12.63,12.63,0,0,1,7.11,5.93c.12.21.23.44.34.65A1.94,1.94,0,0,1,109.7,85.75Z"/><path class="cls-3" d="M219.33,139.25l5.6-8.3,7.27,12.34a1.51,1.51,0,0,1-.31.06h-9.83a.42.42,0,0,1-.44-.2C220.87,141.86,220.11,140.57,219.33,139.25Z"/><path class="cls-2" d="M29.12,4.76h0a3.4,3.4,0,0,0,5.61,1.5h0a3.41,3.41,0,0,1,5.66,3.27h0a3.4,3.4,0,0,0,4.11,4.11h0a3.4,3.4,0,0,1,3.26,5.65h0a3.41,3.41,0,0,0,1.5,5.62,3.4,3.4,0,0,1,0,6.53,3.4,3.4,0,0,0-1.5,5.61h0A3.4,3.4,0,0,1,44.5,42.7h0a3.4,3.4,0,0,0-4.11,4.11h0a3.41,3.41,0,0,1-5.66,3.27h0a3.4,3.4,0,0,0-5.61,1.5h0a3.4,3.4,0,0,1-6.53,0h0A3.4,3.4,0,0,0,17,50.08h0a3.41,3.41,0,0,1-5.66-3.27h0A3.4,3.4,0,0,0,7.21,42.7,3.4,3.4,0,0,1,4,37.05H4a3.4,3.4,0,0,0-1.51-5.61h0a3.41,3.41,0,0,1,0-6.53h0A3.41,3.41,0,0,0,4,19.29H4a3.4,3.4,0,0,1,3.26-5.65,3.4,3.4,0,0,0,4.11-4.11h0A3.41,3.41,0,0,1,17,6.26h0a3.4,3.4,0,0,0,5.61-1.5h0A3.4,3.4,0,0,1,29.12,4.76Z"/><path class="cls-4" d="M24,28.81l.13-.18,6.69-9.88a.76.76,0,0,0,.08-.11.24.24,0,0,1,.24-.14h6l.13,0-.14.22-5.3,7.84-7.44,11a.35.35,0,0,0-.05.08.35.35,0,0,1-.36.19c-1.11,0-2.22,0-3.34,0h-2.7V23h6V28.8Z"/></g></g></svg>