<svg xmlns="http://www.w3.org/2000/svg" viewBox="0 0 40 60.35"><defs><style>.cls-1{fill:#fff;}</style></defs><g id="Layer_2" data-name="Layer 2"><g id="Layer_1-2" data-name="Layer 1"><path class="cls-1" d="M40,12.58v0l0-.18h0a.78.78,0,0,0,0-.18v0a1.11,1.11,0,0,0-.07-.16h0a1.19,1.19,0,0,0-.09-.15l0,0-.12-.14h0L28.36.41h0L28.22.29l0,0L28,.17h0L27.86.09h0l-.18,0h0l-.18,0H1.4A1.4,1.4,0,0,0,0,1.4V59a1.4,1.4,0,0,0,1.4,1.4H38.6A1.4,1.4,0,0,0,40,59V12.58ZM28.77,4.79l6.44,6.44H28.77Zm-26,52.75V2.81H26v9.82A1.41,1.41,0,0,0,27.37,14h9.82v43.5Z"/><path class="cls-1" d="M33,26.67H7a1.4,1.4,0,1,0,0,2.8H33a1.4,1.4,0,1,0,0-2.8Z"/><path class="cls-1" d="M33,20H7a1.4,1.4,0,1,0,0,2.8H33A1.4,1.4,0,1,0,33,20Z"/><path class="cls-1" d="M33,33.68H7a1.41,1.41,0,1,0,0,2.81H33a1.41,1.41,0,1,0,0-2.81Z"/><path class="cls-1" d="M33,40.7H7a1.41,1.41,0,1,0,0,2.81H33a1.41,1.41,0,1,0,0-2.81Z"/><path class="cls-1" d="M22.67,47.72H7a1.41,1.41,0,1,0,0,2.81H22.67a1.41,1.41,0,1,0,0-2.81Z"/></g></g></svg>