<svg xmlns="http://www.w3.org/2000/svg" xmlns:xlink="http://www.w3.org/1999/xlink" viewBox="0 0 162.97 42.8"><defs><style>.cls-1{fill:url(#linear-gradient);}.cls-2{fill:url(#linear-gradient-2);}.cls-3{fill:url(#linear-gradient-3);}.cls-4{fill:url(#linear-gradient-4);}</style><linearGradient id="linear-gradient" x1="-6.99" y1="7.41" x2="154.42" y2="69.97" gradientUnits="userSpaceOnUse"><stop offset="0" stop-color="#f46262"/><stop offset="1" stop-color="#6f398d"/></linearGradient><linearGradient id="linear-gradient-2" x1="-3.12" y1="-2.59" x2="158.3" y2="59.97" xlink:href="#linear-gradient"/><linearGradient id="linear-gradient-3" x1="3.08" y1="-18.59" x2="164.5" y2="43.97" xlink:href="#linear-gradient"/><linearGradient id="linear-gradient-4" x1="8.59" y1="-32.8" x2="170" y2="29.77" xlink:href="#linear-gradient"/></defs><g id="Layer_2" data-name="Layer 2"><g id="Layer_1-2" data-name="Layer 1"><polygon class="cls-1" points="39.38 17.62 26.64 17.62 28.19 8.63 45.21 8.63 46.64 0.59 36.35 0.59 19.43 0.59 0.63 0.59 0.63 2.25 19.14 2.25 18.48 5.99 5.06 5.99 5.06 7.65 18.19 7.65 17.16 13.44 0 13.44 0 15.1 16.87 15.1 16.24 18.7 6.64 18.7 6.64 20.35 15.94 20.35 15.4 23.44 9.59 23.44 9.59 25.09 15.11 25.09 12.05 42.39 22.23 42.39 25.21 25.36 37.95 25.36 39.38 17.62"/><path class="cls-2" d="M74.14.6H49.51V2.25h14L61.48,6H50.33V7.65H60.59l-3.13,5.79H39.27V15.1h17.3l-3.78,7H45.24v1.65H51.9L46.28,34.21H33.55v1.66H45.39l-3.51,6.52H52.54L56.35,35H71.94l1.19,7.38H83.91L76.17.6ZM60.33,27.27l8-15.48,2.44,15.48Z"/><path class="cls-3" d="M115.91,20.72a54.65,54.65,0,0,0-5.75-3A31.12,31.12,0,0,1,105,14.91a3.6,3.6,0,0,1-1.66-3,3.37,3.37,0,0,1,1.34-2.83,5.46,5.46,0,0,1,3.48-1,4.55,4.55,0,0,1,3.18,1,3.46,3.46,0,0,1,1.17,2.71,3.1,3.1,0,0,1-.06.71h10.83a10.16,10.16,0,0,0,.06-1.31,9.88,9.88,0,0,0-1.84-6,11.57,11.57,0,0,0-5.18-3.87A20.42,20.42,0,0,0,108.68,0a22.72,22.72,0,0,0-5.29.6H86V2.25H99a12.87,12.87,0,0,0-4.52,4,11.37,11.37,0,0,0-1,1.74H80.13V9.64H92.88a13.39,13.39,0,0,0-.46,3.75,11.64,11.64,0,0,0,.13,1.71H84.46v1.65h8.48A8.1,8.1,0,0,0,94,18.93a13,13,0,0,0,2.23,2.37H87.93V23H98.78a50.68,50.68,0,0,0,4.66,2.16,30.43,30.43,0,0,1,5.27,2.68,3.64,3.64,0,0,1,1.69,3.1,3.37,3.37,0,0,1-1.34,2.86,6,6,0,0,1-3.66,1,5.06,5.06,0,0,1-3.81-1.31,4.43,4.43,0,0,1-1.07-3.57H83.65v1.66h6.16a10.37,10.37,0,0,0,.88,4.33H86.05v1.65h5.59a10,10,0,0,0,2.42,2.34q4.26,2.94,11,2.94a21.21,21.21,0,0,0,8.64-1.63,12.87,12.87,0,0,0,5.65-4.56,11.53,11.53,0,0,0,2-6.61,9.56,9.56,0,0,0-1.61-5.62A12.84,12.84,0,0,0,115.91,20.72Z"/><polygon class="cls-4" points="142.64 0.59 130.64 0.59 122.41 0.59 122.41 2.25 130.35 2.25 129.78 5.47 125.1 5.47 125.1 7.12 129.48 7.12 129.22 8.63 140.29 8.63 139.09 15.4 126.58 15.4 126.58 17.05 138.8 17.05 138.33 19.75 121.62 19.75 121.62 21.4 138.04 21.4 137.2 26.17 124.73 26.17 124.73 27.82 136.9 27.82 135.7 34.67 122.37 34.67 122.37 36.33 135.4 36.33 134.34 42.39 144.51 42.39 150.47 8.63 161.6 8.63 162.97 0.59 142.64 0.59"/></g></g></svg>