<svg xmlns="http://www.w3.org/2000/svg" viewBox="0 0 32.34 30.62"><defs><style>.cls-1{fill:#212121;}</style></defs><g id="Layer_2" data-name="Layer 2"><g id="Layer_1-2" data-name="Layer 1"><path class="cls-1" d="M23.76,12.86a.86.86,0,0,0,.86.85h6v15.2H1.71V13.71h6a.86.86,0,1,0,0-1.71H.86a.85.85,0,0,0-.86.86v16.9a.85.85,0,0,0,.86.86H31.48a.86.86,0,0,0,.86-.86V12.86a.86.86,0,0,0-.86-.86H24.62A.86.86,0,0,0,23.76,12.86Z"/><path class="cls-1" d="M15.57.27,9.17,7.15a.85.85,0,0,0,0,1.21.86.86,0,0,0,1.21,0l4.89-5.26V22.91a.86.86,0,0,0,1.72,0V3l4.88,5.26a.88.88,0,0,0,1.22,0,.86.86,0,0,0,.27-.63.85.85,0,0,0-.23-.58L16.82.27a.86.86,0,0,0-1.25,0Z"/></g></g></svg>