<svg xmlns="http://www.w3.org/2000/svg" xmlns:xlink="http://www.w3.org/1999/xlink" viewBox="0 0 30.88 58.95"><defs><style>.cls-1{fill:url(#linear-gradient);}</style><linearGradient id="linear-gradient" y1="29.47" x2="30.88" y2="29.47" gradientUnits="userSpaceOnUse"><stop offset="0" stop-color="#f46262"/><stop offset="1" stop-color="#6f398d"/></linearGradient></defs><g id="Layer_2" data-name="Layer 2"><g id="Layer_1-2" data-name="Layer 1"><path class="cls-1" d="M30.74,21.84a1.41,1.41,0,0,0-1.27-.79H18.09L30.64,2.18A1.4,1.4,0,0,0,29.47,0H11.89a1.4,1.4,0,0,0-1.33,1L.07,32.54A1.41,1.41,0,0,0,1.4,34.39H6.58L.05,57.16a1.41,1.41,0,0,0,.71,1.63A1.32,1.32,0,0,0,1.4,59a1.41,1.41,0,0,0,1.1-.53L30.57,23.33A1.41,1.41,0,0,0,30.74,21.84ZM4.68,51.2,9.79,33.37a1.41,1.41,0,0,0-1.35-1.79H3.35L12.9,2.81h14L14.3,21.67a1.43,1.43,0,0,0-.07,1.44,1.4,1.4,0,0,0,1.24.74H26.55Z"/></g></g></svg>